<svg width="23" height="23" viewBox="0 0 23 23" fill="none" xmlns="http://www.w3.org/2000/svg">
<path d="M11.5 1.4375C9.50983 1.4375 7.56435 2.02766 5.90958 3.13334C4.25481 4.23902 2.96507 5.81057 2.20347 7.64925C1.44186 9.48793 1.24259 11.5112 1.63085 13.4631C2.01912 15.415 2.97748 17.208 4.38474 18.6153C5.79201 20.0225 7.58497 20.9809 9.53691 21.3692C11.4888 21.7574 13.5121 21.5581 15.3508 20.7965C17.1894 20.0349 18.761 18.7452 19.8667 17.0904C20.9723 15.4357 21.5625 13.4902 21.5625 11.5C21.5625 8.83126 20.5023 6.27182 18.6153 4.38474C16.7282 2.49765 14.1687 1.4375 11.5 1.4375ZM16.8525 12.1433L8.22754 16.4558C8.11793 16.5106 7.99614 16.5364 7.87374 16.5308C7.75133 16.5253 7.63238 16.4886 7.52817 16.4241C7.42396 16.3597 7.33796 16.2696 7.27834 16.1626C7.21872 16.0555 7.18745 15.935 7.1875 15.8125V7.1875C7.18757 7.06503 7.21893 6.94461 7.2786 6.83766C7.33828 6.73072 7.42429 6.64079 7.52848 6.57642C7.63266 6.51205 7.75157 6.47537 7.87392 6.46986C7.99626 6.46435 8.11798 6.49019 8.22754 6.54494L16.8525 10.8574C16.9718 10.9172 17.072 11.0089 17.1421 11.1224C17.2121 11.2359 17.2492 11.3666 17.2492 11.5C17.2492 11.6334 17.2121 11.7641 17.1421 11.8776C17.072 11.9911 16.9718 12.0828 16.8525 12.1426V12.1433Z" fill="white"/>
</svg>
