<svg width="30" height="30" viewBox="0 0 30 30" fill="none" xmlns="http://www.w3.org/2000/svg">
<path d="M5.28125 12.1875C5.71215 12.1875 6.13883 12.2724 6.53693 12.4373C6.93503 12.6022 7.29675 12.8439 7.60144 13.1486C7.90614 13.4532 8.14783 13.815 8.31273 14.2131C8.47763 14.6112 8.5625 15.0379 8.5625 15.4688C8.5625 15.8996 8.47763 16.3263 8.31273 16.7244C8.14783 17.1225 7.90614 17.4843 7.60144 17.7889C7.29675 18.0936 6.93503 18.3353 6.53693 18.5002C6.13883 18.6651 5.71215 18.75 5.28125 18.75C4.41101 18.75 3.57641 18.4043 2.96106 17.7889C2.3457 17.1736 2 16.339 2 15.4688C2 14.5985 2.3457 13.7639 2.96106 13.1486C3.57641 12.5332 4.41101 12.1875 5.28125 12.1875ZM15.125 12.1875C15.5559 12.1875 15.9826 12.2724 16.3807 12.4373C16.7788 12.6022 17.1405 12.8439 17.4452 13.1486C17.7499 13.4532 17.9916 13.815 18.1565 14.2131C18.3214 14.6112 18.4062 15.0379 18.4062 15.4688C18.4062 15.8996 18.3214 16.3263 18.1565 16.7244C17.9916 17.1225 17.7499 17.4843 17.4452 17.7889C17.1405 18.0936 16.7788 18.3353 16.3807 18.5002C15.9826 18.6651 15.5559 18.75 15.125 18.75C14.2548 18.75 13.4202 18.4043 12.8048 17.7889C12.1895 17.1736 11.8438 16.339 11.8438 15.4688C11.8438 14.5985 12.1895 13.7639 12.8048 13.1486C13.4202 12.5332 14.2548 12.1875 15.125 12.1875ZM24.9688 12.1875C25.3997 12.1875 25.8263 12.2724 26.2244 12.4373C26.6225 12.6022 26.9843 12.8439 27.2889 13.1486C27.5936 13.4532 27.8353 13.815 28.0002 14.2131C28.1651 14.6112 28.25 15.0379 28.25 15.4688C28.25 15.8996 28.1651 16.3263 28.0002 16.7244C27.8353 17.1225 27.5936 17.4843 27.2889 17.7889C26.9843 18.0936 26.6225 18.3353 26.2244 18.5002C25.8263 18.6651 25.3997 18.75 24.9688 18.75C24.0985 18.75 23.2639 18.4043 22.6486 17.7889C22.0332 17.1736 21.6875 16.339 21.6875 15.4688C21.6875 14.5985 22.0332 13.7639 22.6486 13.1486C23.2639 12.5332 24.0985 12.1875 24.9688 12.1875Z" fill="#C81973"/>
</svg>
