<svg width="20" height="20" viewBox="0 0 20 20" fill="none" xmlns="http://www.w3.org/2000/svg">
<path d="M15 18.3333C14.3056 18.3333 13.7153 18.0903 13.2292 17.6042C12.7431 17.1181 12.5 16.5278 12.5 15.8333C12.5 15.7361 12.5069 15.6353 12.5208 15.5308C12.5347 15.4264 12.5556 15.3328 12.5833 15.25L6.70833 11.8333C6.47222 12.0417 6.20833 12.205 5.91667 12.3233C5.625 12.4417 5.31944 12.5006 5 12.5C4.30556 12.5 3.71528 12.2569 3.22917 11.7708C2.74306 11.2847 2.5 10.6944 2.5 10C2.5 9.30555 2.74306 8.71528 3.22917 8.22917C3.71528 7.74305 4.30556 7.5 5 7.5C5.31944 7.5 5.625 7.55917 5.91667 7.6775C6.20833 7.79583 6.47222 7.95889 6.70833 8.16667L12.5833 4.75C12.5556 4.66667 12.5347 4.57305 12.5208 4.46917C12.5069 4.36528 12.5 4.26444 12.5 4.16667C12.5 3.47222 12.7431 2.88194 13.2292 2.39583C13.7153 1.90972 14.3056 1.66667 15 1.66667C15.6944 1.66667 16.2847 1.90972 16.7708 2.39583C17.2569 2.88194 17.5 3.47222 17.5 4.16667C17.5 4.86111 17.2569 5.45139 16.7708 5.9375C16.2847 6.42361 15.6944 6.66667 15 6.66667C14.6806 6.66667 14.375 6.60778 14.0833 6.49C13.7917 6.37222 13.5278 6.20889 13.2917 6L7.41667 9.41667C7.44444 9.5 7.46528 9.59389 7.47917 9.69833C7.49306 9.80278 7.5 9.90333 7.5 10C7.5 10.0972 7.49306 10.1981 7.47917 10.3025C7.46528 10.4069 7.44444 10.5006 7.41667 10.5833L13.2917 14C13.5278 13.7917 13.7917 13.6286 14.0833 13.5108C14.375 13.3931 14.6806 13.3339 15 13.3333C15.6944 13.3333 16.2847 13.5764 16.7708 14.0625C17.2569 14.5486 17.5 15.1389 17.5 15.8333C17.5 16.5278 17.2569 17.1181 16.7708 17.6042C16.2847 18.0903 15.6944 18.3333 15 18.3333Z" fill="#C81973"/>
</svg>
