<svg width="12" height="12" viewBox="0 0 12 12" fill="none" xmlns="http://www.w3.org/2000/svg">
<g clip-path="url(#clip0_104_210)">
<path fill-rule="evenodd" clip-rule="evenodd" d="M10.773 2.5555C10.9136 2.69615 10.9926 2.88688 10.9926 3.08575C10.9926 3.28463 10.9136 3.47536 10.773 3.616L5.15151 9.2375C5.07722 9.31181 4.98902 9.37075 4.89195 9.41097C4.79488 9.45118 4.69084 9.47188 4.58576 9.47188C4.48069 9.47188 4.37665 9.45118 4.27957 9.41097C4.1825 9.37075 4.0943 9.31181 4.02001 9.2375L1.22701 6.445C1.15538 6.37582 1.09824 6.29306 1.05894 6.20156C1.01963 6.11005 0.998941 6.01164 0.998075 5.91205C0.99721 5.81247 1.01619 5.71371 1.0539 5.62154C1.09161 5.52936 1.1473 5.44563 1.21772 5.37521C1.28814 5.30479 1.37188 5.2491 1.46405 5.21139C1.55622 5.17368 1.65498 5.1547 1.75456 5.15556C1.85415 5.15643 1.95256 5.17712 2.04407 5.21643C2.13557 5.25573 2.21833 5.31287 2.28751 5.3845L4.58551 7.6825L9.71201 2.5555C9.78166 2.48581 9.86436 2.43052 9.95539 2.3928C10.0464 2.35508 10.144 2.33566 10.2425 2.33566C10.341 2.33566 10.4386 2.35508 10.5296 2.3928C10.6207 2.43052 10.7034 2.48581 10.773 2.5555Z" fill="#1973C8"/>
</g>
<defs>
<clipPath id="clip0_104_210">
<rect width="12" height="12" fill="white"/>
</clipPath>
</defs>
</svg>
